<mxfile host="Electron" agent="Mozilla/5.0 (Windows NT 10.0; Win64; x64) AppleWebKit/537.36 (KHTML, like Gecko) draw.io/28.0.4 Chrome/138.0.7204.97 Electron/37.2.1 Safari/537.36" version="28.0.4">
  <diagram name="Diagrama de Paquetes" id="diagram1">
    <mxGraphModel dx="1011" dy="501" grid="1" gridSize="10" guides="1" tooltips="1" connect="1" arrows="1" fold="1" page="1" pageScale="1" pageWidth="827" pageHeight="1169" math="0" shadow="0">
      <root>
        <mxCell id="0" />
        <mxCell id="1" parent="0" />
        <mxCell id="2" value="main.py" style="shape=rectangle;whiteSpace=wrap;html=1;" parent="1" vertex="1">
          <mxGeometry x="400" y="80" width="120" height="60" as="geometry" />
        </mxCell>
        <mxCell id="3" value="&lt;font style=&quot;color: rgb(0, 0, 0);&quot;&gt;view (AppGUI)&lt;/font&gt;" style="shape=rectangle;whiteSpace=wrap;html=1;fillColor=#DAF7A6;" parent="1" vertex="1">
          <mxGeometry x="70" y="290" width="160" height="60" as="geometry" />
        </mxCell>
        <mxCell id="4" value="&lt;font style=&quot;color: rgb(0, 0, 0);&quot;&gt;controller (ClienteController)&lt;/font&gt;" style="shape=rectangle;whiteSpace=wrap;html=1;fillColor=#FFC300;" parent="1" vertex="1">
          <mxGeometry x="400" y="220" width="180" height="60" as="geometry" />
        </mxCell>
        <mxCell id="5" value="model (Cliente)" style="shape=rectangle;whiteSpace=wrap;html=1;fillColor=#FF5733;" parent="1" vertex="1">
          <mxGeometry x="540" y="370" width="160" height="60" as="geometry" />
        </mxCell>
        <mxCell id="6" style="endArrow=block;html=1;" parent="1" source="2" target="4" edge="1">
          <mxGeometry relative="1" as="geometry" />
        </mxCell>
        <mxCell id="7" style="endArrow=block;html=1;" parent="1" source="3" target="4" edge="1">
          <mxGeometry relative="1" as="geometry" />
        </mxCell>
        <mxCell id="8" style="endArrow=block;html=1;" parent="1" source="4" target="5" edge="1">
          <mxGeometry relative="1" as="geometry" />
        </mxCell>
      </root>
    </mxGraphModel>
  </diagram>
</mxfile>
